name GIL04_free3.mot
datacolumns 153
datarows 4
range 0.10833324 0.13333324
endheader

                time	           pelvis_tx	           pelvis_ty	           pelvis_tz	         pelvis_tilt	         pelvis_list	     pelvis_rotation	       hip_flexion_r	     hip_adduction_r	      hip_rotation_r	        knee_angle_r	       ankle_angle_r	    subtalar_angle_r	         mtp_angle_r	       hip_flexion_l	     hip_adduction_l	      hip_rotation_l	        knee_angle_l	       ankle_angle_l	    subtalar_angle_l	         mtp_angle_l	    lumbar_extension	      lumbar_bending	     lumbar_rotation	     ground_force_vx	     ground_force_vy	     ground_force_vz	     ground_force_px	     ground_force_py	     ground_force_pz	     ground_force_vx	     ground_force_vy	     ground_force_vz	     ground_force_px	     ground_force_py	     ground_force_pz	     ground_torque_x	     ground_torque_y	     ground_torque_z	     ground_torque_x	     ground_torque_y	     ground_torque_z	    ground_marker_px	    ground_marker_py	    ground_marker_pz	    ground_marker_px	    ground_marker_py	    ground_marker_pz	    ground_marker_px	    ground_marker_py	    ground_marker_pz	    ground_marker_px	    ground_marker_py	    ground_marker_pz	    ground_marker_px	    ground_marker_py	    ground_marker_pz	    ground_marker_px	    ground_marker_py	    ground_marker_pz	    ground_marker_px	    ground_marker_py	    ground_marker_pz	    ground_marker_px	    ground_marker_py	    ground_marker_pz	    ground_marker_px	    ground_marker_py	    ground_marker_pz	    ground_marker_px	    ground_marker_py	    ground_marker_pz	    ground_marker_px	    ground_marker_py	    ground_marker_pz	    ground_marker_px	    ground_marker_py	    ground_marker_pz	    ground_marker_px	    ground_marker_py	    ground_marker_pz	    ground_marker_px	    ground_marker_py	    ground_marker_pz	    ground_marker_px	    ground_marker_py	    ground_marker_pz	    ground_marker_px	    ground_marker_py	    ground_marker_pz	    ground_marker_px	    ground_marker_py	    ground_marker_pz	    ground_marker_px	    ground_marker_py	    ground_marker_pz	    ground_marker_px	    ground_marker_py	    ground_marker_pz	    ground_marker_px	    ground_marker_py	    ground_marker_pz	    ground_marker_px	    ground_marker_py	    ground_marker_pz	    ground_marker_px	    ground_marker_py	    ground_marker_pz	    ground_marker_px	    ground_marker_py	    ground_marker_pz	    ground_marker_px	    ground_marker_py	    ground_marker_pz	    ground_marker_px	    ground_marker_py	    ground_marker_pz	    ground_marker_px	    ground_marker_py	    ground_marker_pz	    ground_marker_px	    ground_marker_py	    ground_marker_pz	    ground_marker_px	    ground_marker_py	    ground_marker_pz	    ground_marker_px	    ground_marker_py	    ground_marker_pz	    ground_marker_px	    ground_marker_py	    ground_marker_pz	    ground_marker_px	    ground_marker_py	    ground_marker_pz	    ground_marker_px	    ground_marker_py	    ground_marker_pz	    ground_marker_px	    ground_marker_py	    ground_marker_pz	    ground_marker_px	    ground_marker_py	    ground_marker_pz	    ground_marker_px	    ground_marker_py	    ground_marker_pz	    ground_marker_px	    ground_marker_py	    ground_marker_pz	    ground_marker_px	    ground_marker_py	    ground_marker_pz	
          0.10833324	          1.16252947	          0.72585720	         -0.19240087	         -0.74567127	          4.18918848	          0.86525041	        -13.27046204	         -3.71466470	          1.10424066	        -38.55527496	        -25.52950859	          0.00000000	          0.00000000	         28.11701584	         10.38822079	          0.45773593	        -24.86156464	         -3.22360134	          0.00000000	          0.00000000	         -9.29131508	         -5.59785080	          4.97561455	          0.00000000	          0.00000000	          0.00000000	          1.72888879	          0.00000000	         -0.16864011	        -77.99750847	        372.54421941	          9.10175169	          1.26420862	          0.00000000	         -0.23419946	          0.00000000	          0.00000000	          0.00000000	          0.00000000	          1.08136316	          0.00000000	          1.10418427	          0.65539044	         -0.20085722	          1.09814394	          0.65642846	         -0.13459219	          1.09831834	          0.66581202	         -0.26007059	          1.02190840	          0.34969047	         -0.13710128	          1.24303389	          0.38300610	         -0.22318895	          0.76495171	          0.15247309	         -0.13258670	          1.25825453	          0.05865454	         -0.22860926	          1.16252947	          0.72585720	         -0.19240087	          1.16239834	          0.71879572	         -0.09797291	          1.16266072	          0.73291868	         -0.28682885	          1.01623917	          0.76151466	         -0.17187282	          1.01292455	          0.75818020	         -0.22690625	          1.02357328	          0.34886387	         -0.08663550	          1.24760640	          0.37887499	         -0.27280775	          1.02696347	          0.33666661	         -0.18452990	          1.25352418	          0.38727772	         -0.16701691	          0.76179439	          0.15734218	         -0.09959318	          1.25548065	          0.05909900	         -0.26299468	          0.76685184	          0.16054586	         -0.15776113	          1.25058293	          0.06473111	         -0.20061289	          1.02585828	          1.10592699	         -0.20876415	          1.11802125	          1.06799936	         -0.15192406	          1.10500526	          1.06706619	         -0.28098971	          1.10667622	          1.05571139	         -0.21818231	          1.14090288	          0.91564101	         -0.22015578	          1.04878366	          0.43546537	         -0.00970860	          1.32097518	          0.53609294	         -0.26250893	          1.09372342	          0.48562151	         -0.07876517	          1.22938168	          0.55773479	         -0.21684702	          1.08751369	          0.40201297	         -0.09109996	          1.26097393	          0.47763386	         -0.20028050	          0.83402443	          0.22995605	         -0.02692153	          1.34242773	          0.16141309	         -0.25939244	          0.88454032	          0.25290871	         -0.08633506	          1.28310859	          0.21618827	         -0.24125108	          0.76876247	          0.05560527	         -0.13885655	          1.35064673	          0.03787747	         -0.22263999	
          0.11666657	          1.17247379	          0.72644073	         -0.19313104	         -0.82538986	          4.27239752	          0.88821054	        -11.47187710	         -4.19103813	          0.60540015	        -41.53668213	        -27.37508011	          0.00000000	          0.00000000	         27.67702103	         10.62716675	          0.52908963	        -25.54512215	         -2.16621923	          0.00000000	          0.00000000	         -9.33310699	         -5.82802010	          5.02717447	          0.00000000	          0.00000000	          0.00000000	          1.73002148	          0.00000000	         -0.16915878	        -75.78476421	        386.49714192	          7.15026633	          1.26495618	          0.00000000	         -0.23350450	          0.00000000	          0.00000000	          0.00000000	          0.00000000	          1.18144568	          0.00000000	          1.11408234	          0.65595520	         -0.20167613	          1.10799754	          0.65701288	         -0.13542242	          1.10817623	          0.66658491	         -0.26088658	          1.04089546	          0.34753829	         -0.13591886	          1.25006306	          0.38291377	         -0.22325213	          0.78045344	          0.15668511	         -0.13240677	          1.25851989	          0.05846949	         -0.22836231	          1.17247379	          0.72644073	         -0.19313104	          1.17233932	          0.71923840	         -0.09872767	          1.17260826	          0.73364305	         -0.28753442	          1.02620327	          0.76211536	         -0.17256355	          1.02282000	          0.75919878	         -0.22756463	          1.04212916	          0.34718984	         -0.08543514	          1.25471461	          0.37865981	         -0.27285320	          1.04585302	          0.33278522	         -0.18200216	          1.26039720	          0.38708436	         -0.16725296	          0.77725923	          0.16165085	         -0.09943120	          1.25588465	          0.05894255	         -0.26275828	          0.78324944	          0.16367213	         -0.15754719	          1.25072813	          0.06454175	         -0.20056325	          1.03638363	          1.10685635	         -0.20937148	          1.12859786	          1.06887949	         -0.15264015	          1.11537337	          1.06767702	         -0.28157583	          1.11710215	          1.05643690	         -0.21884719	          1.15109611	          0.91632581	         -0.22051023	          1.06393790	          0.43473241	         -0.00923563	          1.32970190	          0.53525406	         -0.26267031	          1.10858476	          0.48505247	         -0.07829209	          1.23831892	          0.55752730	         -0.21803407	          1.10408401	          0.40085629	         -0.08916583	          1.26898170	          0.47721815	         -0.20087825	          0.85052878	          0.23255818	         -0.02640235	          1.34509683	          0.15923183	         -0.25896710	          0.90170866	          0.25448385	         -0.08555591	          1.28662884	          0.21521096	         -0.24098195	          0.77903944	          0.05890014	         -0.13786186	          1.35093737	          0.03744059	         -0.22226316	
          0.12499990	          1.18214738	          0.72712731	         -0.19381642	         -0.96049976	          4.30353975	          0.90542305	         -9.50294876	         -4.59253120	         -0.01209099	        -44.53465652	        -28.65556335	          0.00000000	          0.00000000	         27.22527695	         10.77927780	          0.49888730	        -26.04785156	         -1.15526998	          0.00000000	          0.00000000	         -9.33622837	         -6.21263027	          5.19809675	          0.00000000	          0.00000000	          0.00000000	          1.73113220	          0.00000000	         -0.16974533	        -71.98834691	        397.87229606	          5.67557945	          1.26582703	          0.00000000	         -0.23298235	          0.00000000	          0.00000000	          0.00000000	          0.00000000	          1.27077271	          0.00000000	          1.12358308	          0.65669543	         -0.20238143	          1.11751902	          0.65781581	         -0.13613817	          1.11769879	          0.66746229	         -0.26159662	          1.06025803	          0.34580064	         -0.13473584	          1.25647342	          0.38276187	         -0.22344889	          0.79675382	          0.16084665	         -0.13236761	          1.25875282	          0.05831176	         -0.22821255	          1.18214738	          0.72712731	         -0.19381642	          1.18201220	          0.71987087	         -0.09944110	          1.18228257	          0.73438382	         -0.28819174	          1.03590441	          0.76297402	         -0.17329490	          1.03252995	          0.76044726	         -0.22827990	          1.06090736	          0.34590840	         -0.08424013	          1.26107728	          0.37836090	         -0.27304161	          1.07349670	          0.32859921	         -0.18183699	          1.26678824	          0.38693467	         -0.16741337	          0.79352057	          0.16587517	         -0.09940536	          1.25616276	          0.05879862	         -0.26261175	          0.80068296	          0.16643380	         -0.15745483	          1.25099611	          0.06442271	         -0.20041239	          1.04678857	          1.10797656	         -0.20992921	          1.13906503	          1.06983960	         -0.15326305	          1.12531602	          1.06796241	         -0.28187850	          1.12740731	          1.05727923	         -0.21938917	          1.16048825	          0.91677994	         -0.22021013	          1.07891738	          0.43426740	         -0.00873616	          1.33788168	          0.53414714	         -0.26319164	          1.12347770	          0.48487672	         -0.07757845	          1.24697721	          0.55740464	         -0.21906106	          1.12425470	          0.40098161	         -0.08765737	          1.27658391	          0.47677630	         -0.20146459	          0.86763394	          0.23509729	         -0.02597683	          1.34734976	          0.15721317	         -0.25886244	          0.92026174	          0.25524727	         -0.08510087	          1.28953981	          0.21429074	         -0.24127145	          0.79111809	          0.06236094	         -0.13685736	          1.35113716	          0.03714433	         -0.22199829	
          0.13333324	          1.19156003	          0.72794700	         -0.19447435	         -1.13611317	          4.29532337	          0.93281931	         -7.40229368	         -4.93358183	         -0.75290650	        -47.50764465	        -29.28404999	          0.00000000	          0.00000000	         26.74884415	         10.86535072	          0.42026293	        -26.38500977	         -0.20065163	          0.00000000	          0.00000000	         -9.33185673	         -6.38721037	          5.22032595	          0.00000000	          0.00000000	          0.00000000	          1.73221667	          0.00000000	         -0.17039819	        -67.19114297	        402.84661125	          5.27194284	          1.26689807	          0.00000000	         -0.23272717	          0.00000000	          0.00000000	          0.00000000	          0.00000000	          1.32259277	          0.00000000	          1.13273168	          0.65763068	         -0.20299414	          1.12675059	          0.65883338	         -0.13676174	          1.12689722	          0.66847533	         -0.26222059	          1.07991815	          0.34454560	         -0.13356119	          1.26229906	          0.38257349	         -0.22378796	          0.81377929	          0.16491616	         -0.13245787	          1.25894332	          0.05817260	         -0.22816113	          1.19156003	          0.72794700	         -0.19447435	          1.19144976	          0.72069657	         -0.10013392	          1.19167030	          0.73519742	         -0.28881478	          1.04535532	          0.76408052	         -0.17400311	          1.04205108	          0.76190811	         -0.22899196	          1.07984519	          0.34507072	         -0.08306398	          1.26676667	          0.37802291	         -0.27337962	          1.09394848	          0.32700571	         -0.18087915	          1.27255285	          0.38687971	         -0.16750871	          0.81050110	          0.16997550	         -0.09950477	          1.25634921	          0.05866316	         -0.26255998	          0.81868500	          0.16917224	         -0.15760621	          1.25120580	          0.06441876	         -0.20031378	          1.05706155	          1.10925901	         -0.21043319	          1.14939415	          1.07091594	         -0.15380907	          1.13546729	          1.06869900	         -0.28232738	          1.13759220	          1.05825508	         -0.21981283	          1.17018938	          0.91758031	         -0.22028536	          1.09372425	          0.43408233	         -0.00822209	          1.34553349	          0.53286707	         -0.26397431	          1.13823366	          0.48515403	         -0.07662713	          1.25515532	          0.55737597	         -0.22002389	          1.14124560	          0.40095454	         -0.08624684	          1.28362238	          0.47636524	         -0.20203488	          0.88526750	          0.23758590	         -0.02564551	          1.34926283	          0.15536223	         -0.25897470	          0.93960607	          0.25529519	         -0.08484384	          1.29192460	          0.21345927	         -0.24194208	          0.80515170	          0.06590393	         -0.13588764	          1.35126412	          0.03694257	         -0.22183897	
